<svg xmlns="http://www.w3.org/2000/svg" viewBox="0 0 304 304" width="304" height="304">
  <path fill="none" stroke="#fff" stroke-width="2" d="M44,174 L60,174 L60,190 L44,190 L44,174 Z M60,174 L68,174 M60,190 L68,190 M92,174 L100,174 M92,190 L100,190 M124,174 L132,174 M124,190 L132,190 M156,174 L164,174 M156,190 L164,190 M188,174 L196,174 M188,190 L196,190 M220,174 L228,174 M220,190 L228,190 M252,174 L260,174 M252,190 L260,190 M44,206 L60,206 L60,222 L44,222 L44,206 Z M60,206 L68,206 M60,222 L68,222 M92,206 L100,206 M92,222 L100,222 M124,206 L132,206 M124,222 L132,222 M156,206 L164,206 M156,222 L164,222 M188,206 L196,206 M188,222 L196,222 M220,206 L228,206 M220,222 L228,222 M252,206 L260,206 M252,222 L260,222 M44,238 L60,238 L60,254 L44,254 L44,238 Z M60,238 L68,238 M60,254 L68,254 M92,238 L100,238 M92,254 L100,254 M124,238 L132,238 M124,254 L132,254 M156,238 L164,238 M156,254 L164,254 M188,238 L196,238 M188,254 L196,254 M220,238 L228,238 M220,254 L228,254 M252,238 L260,238 M252,254 L260,254"/>
</svg>

